<svg width="32" height="32" viewBox="0 0 32 32" fill="none" xmlns="http://www.w3.org/2000/svg">
<g clip-path="url(#clip0_4492_2043)">
<rect width="32" height="32" rx="16" fill="#EFF5FB"/>
<g clip-path="url(#clip1_4492_2043)">
<path d="M8.28261 15.7129L11.9693 17.0958L13.3963 21.7078C13.4876 22.0032 13.847 22.1124 14.0856 21.9164L16.1406 20.2327C16.3561 20.0563 16.6629 20.0475 16.888 20.2118L20.5946 22.9162C20.8498 23.1026 21.2113 22.9621 21.2753 22.6522L23.9906 9.52631C24.0604 9.18778 23.7295 8.90537 23.4087 9.03004L8.27829 14.8959C7.9049 15.0407 7.90815 15.5719 8.28261 15.7129ZM13.1663 16.3597L20.3716 11.8999C20.5011 11.82 20.6343 11.9959 20.5231 12.0996L14.5767 17.6546C14.3677 17.8501 14.2329 18.1118 14.1947 18.3958L13.9921 19.9044C13.9653 20.1058 13.6837 20.1258 13.6284 19.9309L12.8494 17.1799C12.7602 16.8661 12.8902 16.531 13.1663 16.3597Z" fill="#333333"/>
</g>
</g>
<defs>
<clipPath id="clip0_4492_2043">
<rect width="32" height="32" fill="white"/>
</clipPath>
<clipPath id="clip1_4492_2043">
<rect width="16" height="14" fill="white" transform="translate(8 9)"/>
</clipPath>
</defs>
</svg>
